<svg xmlns="http://www.w3.org/2000/svg" xmlns:xlink="http://www.w3.org/1999/xlink" viewBox="0 0 118.01 59.37"><defs><style>.cls-1{fill:url(#Degradado_sin_nombre_95);}.cls-2{fill:#fff;}.cls-3{fill:#fbcd04;}</style><linearGradient id="Degradado_sin_nombre_95" x1="32.35" y1="-23.34" x2="94.84" y2="75.46" gradientUnits="userSpaceOnUse"><stop offset="0"/><stop offset="1" stop-color="#9a5e0d"/></linearGradient></defs><title>Asset 3</title><g id="Layer_2" data-name="Layer 2"><g id="Layer_1-2" data-name="Layer 1"><path class="cls-1" d="M118,37.53V.17L112.2.65l-11.12.92,0,1.71-12.54.39-.35-.88-8,.35.52-1.57-3.13.08L73.61,4,70.88,1.75,70.63,3l-1-1.47L62.32,3.49,46.79,2.27l-.38,1.51-.15.58s-.42-1-5-1.62a37,37,0,0,0-7.58-.31l-3.28.19V4.36S25.49-.17,18.16,3.14V0H0L.17,37.71l19.56-1.92s-3.62,6.28,1.84,11.32a10.34,10.34,0,0,0,11.83.22A8.55,8.55,0,0,0,37,49a.45.45,0,0,1,0,.11c-.13.46-.09,4.35-.07,5.63,0,.21,0,.42,0,.63a4,4,0,0,0,1.62,3.33,4.21,4.21,0,0,0,3.18.58A3.46,3.46,0,0,0,44,57.85a4.33,4.33,0,0,0,3.16,1.46h2.87a4.28,4.28,0,0,0,1.2-.21,4.5,4.5,0,0,0,3.34-.25,4.52,4.52,0,0,0,1.93.46,3.61,3.61,0,0,0,1.73-.56,7,7,0,0,0,4.43.44,5.44,5.44,0,0,0,4-3,5.86,5.86,0,0,0,.3-1.68H67l.29.1c0,.06,0,.13,0,.23a4,4,0,0,0,4.62,4.49h3A4.32,4.32,0,0,0,76,59.14a3.64,3.64,0,0,0,.68-.24,10.1,10.1,0,0,0,2.17.46s3.73.36,5.61-2.6a5.33,5.33,0,0,0,.65-2.37V50.52s0-.34-.08-.72v0s0-.31-.1-.68a9.6,9.6,0,0,0,3.38-1,4.66,4.66,0,0,0,4,.76,3.83,3.83,0,0,0,3.14-2.65,3.52,3.52,0,0,0,.23-1.13A6.49,6.49,0,0,0,100,42.32a7.51,7.51,0,0,0,1.11-3,7.23,7.23,0,0,0-.58-3.8Z"/><g id="FORTNITE"><polygon class="cls-2" points="10.52 10.96 16.38 10.96 16.38 3.93 3.49 3.93 3.79 34.68 10.82 33.22 10.82 22.09 14.63 22.09 14.63 15.35 10.52 15.35 10.52 10.96"/><polygon class="cls-2" points="48.9 12.13 52.41 12.42 52.41 30.88 59.44 30.88 59.44 13.3 62.66 13.3 62.95 6.86 48.9 5.68 48.9 12.13"/><polygon class="cls-2" points="72.91 5.39 73.79 17.4 69.4 5.68 63.54 6.86 63.54 30.58 69.98 30.58 69.4 20.04 73.79 31.46 79.36 30.88 79.06 5.68 72.91 5.39"/><polygon class="cls-2" points="80.53 6.56 80.53 31.75 87.85 31.75 87.56 6.56 80.53 6.56"/><polygon class="cls-2" points="102.2 7.15 88.44 7.44 88.44 14.18 91.95 14.18 91.95 32.34 98.69 32.34 98.4 13.59 102.5 13.59 102.2 7.15"/><polygon class="cls-2" points="115.09 11.84 115.09 4.22 103.38 5.39 103.38 32.92 115.09 33.51 115.09 25.89 109.82 25.89 109.82 21.8 114.21 21.8 114.21 16.23 109.82 16.23 109.82 11.84 115.09 11.84"/><path class="cls-2" d="M48.6,12.13c-1.76-6.74-9.08-6.45-9.08-6.45H33.08l-.3,25.19h6.74V23l2.93,9.08,7.32-.3-4.1-10.54S50.36,18.87,48.6,12.13Zm-9.08,6.44v-7s2.64,0,2.64,3.52S39.52,18.57,39.52,18.57Z"/><path class="cls-2" d="M23.85,5.68c-6.59,0-8,5.84-8,13s2.34,13,8.05,13c6.3,0,8.35-5.83,8.35-13S30.73,5.68,23.85,5.68ZM24,26.48c-1.17,0-1.47-3.54-1.47-7.91s.3-7.91,1.47-7.91,1.46,3.55,1.46,7.91S25.17,26.48,24,26.48Z"/></g><g id="COLPD_CUP" data-name="COLPD CUP"><path class="cls-3" d="M30.78,39.15H28.21c-1,0-1.55.48-1.55,1.44S27.18,42,28.21,42h.53a1,1,0,0,1,0,.24c0,.68-.45,1-1.34,1a2.72,2.72,0,0,1-2.13-.82,3,3,0,0,1-.78-2.14,3.43,3.43,0,0,1,.66-2.16,2.39,2.39,0,0,1,2.05-.85,5.14,5.14,0,0,1,2.2.43,3.1,3.1,0,0,0,1.25.42,1.23,1.23,0,0,0,.89-.52A1.69,1.69,0,0,0,32,36.5c0-.44-.44-.91-1.27-1.42a7.26,7.26,0,0,0-3.67-.75A5.71,5.71,0,0,0,22.94,36a5.77,5.77,0,0,0-1.72,4.35A5.78,5.78,0,0,0,23,44.7a5.94,5.94,0,0,0,4.3,1.66A7.19,7.19,0,0,0,31,45.64a2.09,2.09,0,0,0,1.13-1.79V40.71Q32.1,39.15,30.78,39.15Z"/><path class="cls-3" d="M45.1,40.35A5.81,5.81,0,0,0,43.38,36,6.07,6.07,0,0,0,39,34.33,6.08,6.08,0,0,0,34.54,36a5.81,5.81,0,0,0-1.72,4.35,5.78,5.78,0,0,0,1.73,4.35,6.05,6.05,0,0,0,4.39,1.66,6.12,6.12,0,0,0,4.41-1.66A5.75,5.75,0,0,0,45.1,40.35ZM41,42.49a2.63,2.63,0,0,1-2.06.85,2.68,2.68,0,0,1-2.06-.84,3,3,0,0,1-.78-2.14,3.08,3.08,0,0,1,.78-2.16,2.93,2.93,0,0,1,4.13,0,3.09,3.09,0,0,1,.77,2.14A3.06,3.06,0,0,1,41,42.49Z"/><path class="cls-3" d="M47.52,46.26h4.36c.71,0,1.07-.46,1.07-1.37s-.36-1.36-1.07-1.36H49.22V36.17c0-1-.56-1.5-1.7-1.5s-1.7.5-1.7,1.5v8.59C45.82,45.76,46.39,46.26,47.52,46.26Z"/><path class="cls-3" d="M55.5,46.26H59a4.53,4.53,0,0,0,3.92-3.14,6.92,6.92,0,0,0,0-5.31A4.53,4.53,0,0,0,59,34.67H55.5c-1.13,0-1.69.5-1.69,1.5v8.59C53.81,45.76,54.37,46.26,55.5,46.26ZM57.2,37h.62c1.61.05,2.42,1.17,2.43,3.35s-.8,3.36-2.43,3.53l-.62,0Z"/><path class="cls-3" d="M77.86,45.58c.65-.52,1-1,1-1.4a1.63,1.63,0,0,0-.41-1.11,1.2,1.2,0,0,0-.9-.49A5.54,5.54,0,0,0,76,43a5.4,5.4,0,0,1-1.6.38q-2.88,0-2.88-3c0-2,1-3,2.88-3a5.4,5.4,0,0,1,1.6.38,5.43,5.43,0,0,0,1.57.37,1.18,1.18,0,0,0,.9-.48,1.63,1.63,0,0,0,.41-1.11c0-.41-.32-.88-1-1.4s-1.86-.78-3.67-.78A6.08,6.08,0,0,0,69.8,36a5.77,5.77,0,0,0-1.72,4.35,5.78,5.78,0,0,0,1.73,4.35,6.05,6.05,0,0,0,4.39,1.66A6.19,6.19,0,0,0,77.86,45.58Z"/><path class="cls-3" d="M87.13,34.67c-1.13,0-1.7.5-1.7,1.5v6.45c0,.65-.39,1-1.16,1s-1.17-.33-1.17-1V36.17c0-1-.57-1.5-1.7-1.5s-1.7.5-1.7,1.5v6.95a2.62,2.62,0,0,0,1.4,2.43,6.76,6.76,0,0,0,6.34,0,2.61,2.61,0,0,0,1.39-2.43V36.17C88.83,35.17,88.26,34.67,87.13,34.67Z"/><path class="cls-3" d="M97.63,35.84a3,3,0,0,0-2.4-1.13H91.39c-1.13,0-1.7.49-1.7,1.49v8.56c0,1,.57,1.5,1.7,1.5s1.7-.5,1.7-1.5V42.4h1.73a3.42,3.42,0,0,0,2.67-1.16,4.15,4.15,0,0,0,1.07-2.72A3.87,3.87,0,0,0,97.63,35.84Zm-3.56,3.81h-1V37h1q1.44,0,1.44,1.32T94.07,39.65Z"/><path class="cls-3" d="M43.45,48.77H40.89c-.75,0-1.13.33-1.13,1v5.7c0,.67.38,1,1.13,1s1.13-.33,1.13-1V53.9h1.16A2.26,2.26,0,0,0,45,53.12a2.74,2.74,0,0,0,.71-1.81,2.55,2.55,0,0,0-.62-1.79A2,2,0,0,0,43.45,48.77Zm-.77,3.29H42V50.3h.66c.64,0,1,.3,1,.88S43.32,52.06,42.68,52.06Z"/><path class="cls-3" d="M50,50.57a.79.79,0,0,0,.88-.91c0-.61-.29-.91-.88-.91H47.29q-1.14,0-1.14,1v5.73c0,.67.38,1,1.14,1H50c.59,0,.88-.3.88-.91s-.29-.91-.88-.91H48.42V53.51H49.8a.92.92,0,0,0,0-1.83H48.42V50.57Z"/><path class="cls-3" d="M56.23,53.19A2.26,2.26,0,0,0,57.39,51a2.33,2.33,0,0,0-.63-1.56,2,2,0,0,0-1.58-.73H52.62c-.76,0-1.13.33-1.13,1v5.73c0,.67.37,1,1.13,1s1.13-.33,1.13-1V53.54L55.59,56a1,1,0,0,0,.73.46,1.36,1.36,0,0,0,.84-.35,1,1,0,0,0,.46-.73,1.14,1.14,0,0,0-.25-.71ZM54.4,52.06h-.65V50.3h.65c.65,0,1,.3,1,.88S55.05,52.06,54.4,52.06Z"/><path class="cls-3" d="M63.06,48.75c-.76,0-1.13.33-1.13,1V54q0,.66-.78.66T60.37,54v-4.3c0-.66-.38-1-1.13-1s-1.13.33-1.13,1v4.64A1.75,1.75,0,0,0,59,56a4.47,4.47,0,0,0,4.22,0,1.75,1.75,0,0,0,.93-1.62V49.74C64.19,49.08,63.82,48.75,63.06,48.75Z"/><path class="cls-3" d="M62.13,46.14a.85.85,0,0,0-.75-.18,1.11,1.11,0,0,0-.7.55,8.17,8.17,0,0,0-.5,1,.6.6,0,0,0,.15.81.78.78,0,0,0,.9,0,6.1,6.1,0,0,0,.91-.63.91.91,0,0,0,.36-.81A1,1,0,0,0,62.13,46.14Z"/><path class="cls-3" d="M75.06,54.65h-1.8c1.48-1.3,2.27-2.43,2.36-3.39A2.29,2.29,0,0,0,75,49.19a2.63,2.63,0,0,0-1.8-.64,5.33,5.33,0,0,0-1.95.34c-.59.22-.89.53-.89.91a1.16,1.16,0,0,0,.26.83.72.72,0,0,0,.49.27,2.16,2.16,0,0,0,.8-.3,2.27,2.27,0,0,1,1.34-.21c.51.06.64.43.4,1.11s-1.18,1.65-2.8,2.89a1.25,1.25,0,0,0-.56,1.19.77.77,0,0,0,.86.88h3.88c.48,0,.72-.3.72-.91S75.54,54.65,75.06,54.65Z"/><path class="cls-3" d="M81.44,49.26a4,4,0,0,0-2.08-.54,4.27,4.27,0,0,0-2.12.55,1.78,1.78,0,0,0-1,1.62v3.49a1.76,1.76,0,0,0,1,1.61,4.11,4.11,0,0,0,2.09.55A4,4,0,0,0,81.41,56a1.78,1.78,0,0,0,1-1.59V50.89A1.77,1.77,0,0,0,81.44,49.26ZM80.1,54q0,.66-.75.66T78.6,54V51.22c0-.41.25-.62.75-.62s.75.21.75.62Z"/><path class="cls-3" d="M69.22,51.61a1.55,1.55,0,0,1-.94.42c-.26,0-.41-.11-.43-.32a.34.34,0,0,1,.24-.41l.12-.11a1,1,0,0,1-.59-.95,1.37,1.37,0,0,1,.29-1,1.08,1.08,0,0,1,.82-.35,1.12,1.12,0,0,1,.84.35,1.51,1.51,0,0,1,.26,1.15A1.64,1.64,0,0,1,69.22,51.61Z"/></g></g></g></svg>