<svg xmlns="http://www.w3.org/2000/svg" viewBox="0 0 198.28 230.09"><defs><style>.cls-1{fill:#fff;}.cls-2{fill:none;stroke:#fff;stroke-miterlimit:10;}</style></defs><title>Recurso 1</title><g id="Capa_2" data-name="Capa 2"><g id="Capa_1-2" data-name="Capa 1"><path class="cls-1" d="M29.61,31H59.27V43.1H43.07V67.86H58.6V80.14H43.05v26.38H59.5v12.23H29.61Z"/><path class="cls-1" d="M54,143.47l-4.14,5a24.63,24.63,0,0,0-2.57-1.6c-3.64-1.72-7.68-1.05-9.77,2.52s-1.14,8.29,2.05,10.4a8,8,0,0,0,7.69.57,1.22,1.22,0,0,0,.9-1.44c-.06-.7,0-1.41,0-2.29H43v-5.34H54.82a7,7,0,0,1,.06.77c0,3.4,0,6.79,0,10.18a1.75,1.75,0,0,1-.41,1.17c-5.71,4.68-14.36,5.11-19.79,1.14C30,161.2,28.43,156.47,29.38,151a12.85,12.85,0,0,1,9.4-10.64,15.48,15.48,0,0,1,14,2.19C53.22,142.81,53.57,143.13,54,143.47Z"/><path class="cls-2" d="M197.78,14.82v165.1c-.08.5-.21,1-.24,1.52-.26,4.18-1.7,7.72-5.46,9.94a35.6,35.6,0,0,1-4.28,2.14Q166,202.7,144.14,211.84q-19.41,8.15-38.8,16.33a13.84,13.84,0,0,1-8.82,1.1,39.43,39.43,0,0,1-6-2.2q-32-13.38-63.94-26.8c-6.45-2.71-12.92-5.38-19.29-8.27a10.08,10.08,0,0,1-6.19-8.07,58.15,58.15,0,0,1-.62-7.79Q.47,97.53.52,18.89A48.13,48.13,0,0,1,1,12.55C1.81,6.09,5.24,2.47,11.62,1.15,13,.87,14.33.71,15.68.5H182.8l3.06.47c6.33.92,9.92,4.25,11.29,10.48C197.39,12.57,197.57,13.7,197.78,14.82Z"/><path class="cls-1" d="M168.5,64.26H155.31V62.89q0-7.55,0-15.09a17.15,17.15,0,0,0-.06-1.9,3.87,3.87,0,0,0-3.84-3.78,31.69,31.69,0,0,0-4.57,0,3.73,3.73,0,0,0-3.62,3.35A11.49,11.49,0,0,0,143,47.6q0,27.23,0,54.46a11.92,11.92,0,0,0,0,1.34c.31,2.85,1.74,4.17,4.61,4.26q1.62,0,3.24,0c3-.08,4.55-1.5,4.61-4.56.08-4.47,0-8.94,0-13.42V82.82h13.11c0,.25.07.47.07.68,0,7,0,14.09-.07,21.13a20.87,20.87,0,0,1-.95,5.7,12,12,0,0,1-10,8.68,49.49,49.49,0,0,1-16.47.09c-7-1.14-11-5.81-11.5-12.94-.11-1.64-.16-3.28-.16-4.92q0-26.94,0-53.9a31.58,31.58,0,0,1,.71-6.86,12,12,0,0,1,10-9.72,48.51,48.51,0,0,1,16.91-.1c6.67,1.12,10.45,5.47,11,12.25.29,3.89.2,7.82.24,11.73C168.53,57.8,168.5,61,168.5,64.26Z"/><path class="cls-1" d="M79.41,86.91v1.6c0,9.66,0,19.32,0,29,0,1.08-.3,1.39-1.37,1.37-3.62-.07-7.24,0-10.85,0-.37,0-.73,0-1.17,0V31c.36,0,.72-.05,1.08-.05,6.56,0,13.12-.06,19.68,0a29,29,0,0,1,6.31.72c5.61,1.37,9.08,5.55,9.82,11.54a31.93,31.93,0,0,1,.26,3.9c0,8.28,0,16.56,0,24.83a19.65,19.65,0,0,1-.54,4.32c-1.38,6-5.45,9.68-11.66,10.37-2.62.29-5.28.21-7.92.29C81.89,86.94,80.74,86.91,79.41,86.91Zm.08-44.08V74.92c2.38,0,4.69.16,7,0,1.89-.17,3-1.63,3.24-3.6a18.79,18.79,0,0,0,.09-2.12c0-5.7,0-11.4,0-17.1,0-1.75,0-3.5-.08-5.25a3.83,3.83,0,0,0-3.77-4C83.83,42.72,81.71,42.83,79.49,42.83Z"/><path class="cls-1" d="M122.54,118.78H109.27V31h13.27Z"/><path class="cls-1" d="M89.78,140.12c2.35,0,4.65,0,7,0,.32,0,.72.46.93.8,1.71,2.71,3.37,5.44,5,8.17.25.41.52.81.88,1.38l2.28-3.64c1.24-2,2.49-4,3.69-6a1.43,1.43,0,0,1,1.44-.78c2.11,0,4.23,0,6.43,0v26.54h-6.91V151.6l-.27-.12-6.74,10.32-6.79-10.48v15.33H89.78Z"/><path class="cls-1" d="M61.83,198.24H137.2c-.58.25-.85.38-1.14.48q-18.32,6-36.66,12.08a2.78,2.78,0,0,1-1.59,0q-17.58-6-35.14-12.06c-.3-.1-.6-.22-.89-.33Z"/><path class="cls-1" d="M122.88,166.67V140.18h20.89v6H129.89v4.32h12.46v5.71H129.88v4.42H144v6Z"/><path class="cls-1" d="M86.66,166.74c-2.31,0-4.58,0-6.85,0A1.23,1.23,0,0,1,79,166c-.52-1.15-.91-2.36-1.45-3.5a1.46,1.46,0,0,0-1-.71c-3-.06-6-.05-8.94,0a1.28,1.28,0,0,0-.93.66c-.56,1.17-1,2.41-1.52,3.59a1.17,1.17,0,0,1-.83.65c-2.19.06-4.39,0-6.74,0,.24-.66.43-1.2.65-1.74q5.1-12.12,10.24-24.24a1.56,1.56,0,0,1,1.12-.78c1.74-.08,3.5-.07,5.25,0a1.33,1.33,0,0,1,1,.65q5.43,12.84,10.81,25.71A3.09,3.09,0,0,1,86.66,166.74ZM72.12,148.46c-1.07,2.67-2,5.06-3,7.51h5.93Z"/><path class="cls-1" d="M168.37,143.28l-3.48,5-1-.62a12,12,0,0,0-6.31-2A2.84,2.84,0,0,0,156,146a2.43,2.43,0,0,0-1.12,1.46,2,2,0,0,0,.88,1.57,34.15,34.15,0,0,0,4.11,1.37c1.49.47,3,.82,4.46,1.41,3,1.21,4.81,3.32,4.82,6.7a7.73,7.73,0,0,1-4.74,7.56c-5.19,2.44-13.92.85-17.94-3.29l3.69-4.39c2.26.92,4.3,1.92,6.44,2.57a10.46,10.46,0,0,0,3.75.08,1.67,1.67,0,0,0,1.62-1.58,1.66,1.66,0,0,0-1.26-1.87c-2-.64-4.07-1.17-6.1-1.78a22,22,0,0,1-2.61-.95,6.8,6.8,0,0,1-4.37-7,7.8,7.8,0,0,1,5.1-7.22C157.38,138.65,164.44,139.84,168.37,143.28Z"/></g></g></svg>