<svg xmlns="http://www.w3.org/2000/svg" viewBox="0 0 78.37 48.93"><defs><style>.cls-1,.cls-2{fill:#fff;}.cls-2{font-size:10.93px;font-family:CenturyGothic, Century Gothic;}</style></defs><title>Recurso 2</title><g id="Capa_2" data-name="Capa 2"><g id="Capa_1-2" data-name="Capa 1"><path class="cls-1" d="M39.18,0A16.7,16.7,0,0,0,22.24,16.43,16.7,16.7,0,0,0,39.18,32.86a16.7,16.7,0,0,0,17-16.43A16.7,16.7,0,0,0,39.18,0Zm5.2,5a.31.31,0,0,1-.32.31H43s-.78,0-.79.74c0,1.26,0,2.27,0,2.91A126.82,126.82,0,0,1,42,22.59a9.44,9.44,0,0,1-.4,1.81c-1.13,3.72-5.59,5.44-7.06,4.42A1.34,1.34,0,0,1,34,27.58a1.88,1.88,0,0,1,2.39-1.5c1.16.42,1.32.26,1.32.26C39.25,26.24,39,20.5,39,20.5V6.18a.85.85,0,0,0-.89-.89H36.72A.31.31,0,0,1,36.41,5V4.06a.31.31,0,0,1,.31-.31h7.34a.31.31,0,0,1,.32.31Z"/><text class="cls-2" transform="translate(0 45.58)">JOCKEY PLAZA</text></g></g></svg>